<svg id="bold" enable-background="new 0 0 32 32" height="512" viewBox="0 0 32 32" width="512" xmlns="http://www.w3.org/2000/svg"><path d="m26 32h-20c-3.314 0-6-2.686-6-6v-20c0-3.314 2.686-6 6-6h20c3.314 0 6 2.686 6 6v20c0 3.314-2.686 6-6 6z" fill="#c2ebfd"/><g fill="#009de1"><path d="m21.333 18.658c-.735 0-1.333-.598-1.333-1.333s.598-1.333 1.333-1.333 1.333.598 1.333 1.333-.597 1.333-1.333 1.333z"/><path d="m10.667 18.658c-.735 0-1.333-.598-1.333-1.333s.598-1.333 1.333-1.333 1.333.597 1.333 1.333-.598 1.333-1.333 1.333z"/><path d="m16 18.991c-1.103 0-2-.897-2-2s.897-2 2-2 2 .897 2 2-.897 2-2 2z"/><path d="m19.167 23.325h-6.333c-.276 0-.5-.224-.5-.5v-1c0-1.011.822-1.833 1.833-1.833h3.667c1.011 0 1.833.822 1.833 1.833v1c0 .276-.224.5-.5.5z"/><path d="m22.167 19.325h-1.667c-.213 0-.413.033-.6.1.785.684 1.1 1.535 1.1 2.567h2.5c.273 0 .5-.227.5-.5v-.333c0-1.014-.82-1.834-1.833-1.834z"/><path d="m11.5 19.325h-1.667c-1.013 0-1.833.82-1.833 1.833v.333c0 .273.227.5.5.5h2.5c0-1.031.315-1.883 1.1-2.567-.187-.066-.387-.099-.6-.099z"/></g><path d="m18.312 13.991h-4.623c-.241 0-.447-.171-.492-.408l-.522-2.778c-.074-.394.324-.713.694-.549l1.12.497 1.078-1.848c.18-.307.684-.307.864 0l1.078 1.848 1.12-.497c.368-.163.768.154.694.549l-.522 2.778c-.043.237-.249.408-.489.408z" fill="#46c3f9"/></svg>