<svg enable-background="new 0 0 32 32" height="512" viewBox="0 0 32 32" width="512" xmlns="http://www.w3.org/2000/svg"><g id="BG"><path d="m26 32h-20c-3.314 0-6-2.686-6-6v-20c0-3.314 2.686-6 6-6h20c3.314 0 6 2.686 6 6v20c0 3.314-2.686 6-6 6z" fill="#c2ebfd"/></g><g id="bold"><g><path d="m16 20.615c-.1 0-.201-.03-.286-.09-.288-.201-7.061-4.973-7.061-8.809 0-2.118 1.827-3.841 4.073-3.841 1.31 0 2.519.59 3.275 1.554.756-.964 1.965-1.554 3.275-1.554 2.246 0 4.073 1.723 4.073 3.841 0 3.836-6.773 8.607-7.061 8.809-.087.06-.188.09-.288.09z" fill="#009de1"/></g><g fill="#46c3f9"><path d="m13.327 19.963-1.1 2.933c-.073.2-.26.327-.467.327h-.027c-.22-.013-.407-.167-.46-.38l-.5-2-2.053 1.027c-.18.087-.4.06-.553-.08-.153-.133-.207-.347-.14-.54l1.74-4.787c1.113 1.374 2.466 2.607 3.56 3.5z"/><path d="m23.833 21.79c-.153.14-.373.167-.553.08l-2.053-1.027-.5 2c-.053.213-.24.367-.46.38h-.027c-.207 0-.393-.127-.467-.327l-1.1-2.933c1.093-.893 2.447-2.127 3.56-3.5l1.74 4.787c.067.193.014.407-.14.54z"/></g></g></svg>