<?xml version="1.0"?>
<svg xmlns="http://www.w3.org/2000/svg" xmlns:xlink="http://www.w3.org/1999/xlink" version="1.1" id="Capa_1" x="0px" y="0px" viewBox="0 0 500.201 500.201" style="enable-background:new 0 0 500.201 500.201;" xml:space="preserve" width="512px" height="512px"><g><link xmlns="" type="text/css" id="dark-mode" rel="stylesheet" href="" class="active-path" style=""/><style xmlns="" type="text/css" id="dark-mode-custom-style" class="active-path"/><g>
	<g>
		<path d="M384.1,358.65c-10,0-10,15.6,0,15.6S394.1,358.65,384.1,358.65z" data-original="#000000" class="active-path" fill="#033B4A"/>
	</g>
</g><g>
	<g>
		<path d="M475.6,358.85c0,0-0.1,0-0.1-0.1l-15.1-15.2c-20.6-20.8-48.6-32.5-77.8-32.5l-0.1,0.1c-29.3,0-57.4,11.7-78.1,32.5    l-15.1,15.1l-0.1,0.1c-4.6,4.8-4.6,12.4,0,17.2l0.1,0.1l15.1,14.8c20.6,20.7,48.6,32.3,77.8,32.1h0.2c29.3,0.2,57.4-11.4,78-32.1    l15.1-14.9h0.1C480.2,371.25,480.2,363.65,475.6,358.85z M315.7,379.85l-12.4-12.4l12.4-12.4c10.3-10.3,22.8-18.1,36.6-22.7    c-19.4,16.6-21.7,45.8-5.1,65.2c1.6,1.8,3.3,3.5,5.1,5.1C338.5,398.05,326,390.25,315.7,379.85z M382.4,397.85    c-16.8,0-30.4-13.6-30.3-30.4c0-16.8,13.6-30.4,30.4-30.3c16.8,0,30.3,13.6,30.3,30.4S399.2,397.95,382.4,397.85z M449.2,379.85    c-10.2,10.3-22.8,18.1-36.5,22.7c19.4-16.6,21.7-45.8,5.1-65.3c-1.6-1.8-3.2-3.5-5.1-5.1c13.7,4.8,26.2,12.6,36.5,22.9l12.4,12.4    L449.2,379.85z" data-original="#000000" class="active-path" fill="#033B4A"/>
	</g>
</g><g>
	<g>
		<path d="M383.2,249.95c-0.3,0-0.5,0-0.7,0c-46.3,0.1-88.2,27.3-107.3,69.4h-0.5c-7.9-3.3-13.1-5.3-23.9-5.3h-42.7v-15    c12.4-5.7,23.7-13.5,33.4-23c14.1-14.1,24.2-31.9,29-51.2c14.4-0.7,25.9-13.3,25.9-28.7c0.1-7.4-2.7-14.6-7.7-20.2    c-4-4.1-9.1-7-14.7-8.2v-12.6c25.1,10.3,54,0.8,68-22.4c14.5-24.1,8.5-55.2-13.8-72.3c-1.5-1.2-3.1-2.3-4.7-3.3c0,0-0.1,0-0.1-0.1    c-21.8-13.2-49.8-9.7-67.8,8.5c-16-24.3-40.8-41.4-69.2-47.7c-7.9-1.7-15.9-2.6-24-2.6c-37.1,0-71.7,18.5-92.4,49.3    c-1.1,1-2,2.3-2.4,3.7c-7.1,11.4-12,24.1-14.5,37.3c-1.4,6.9-2.1,14-2.1,21.1v41.3c-5.1,1.3-9.7,4-13.3,7.9    c-5,5.5-7.8,12.7-7.8,20.2c0,14.9,10.6,27.3,24.4,28.6c8.8,34.6,33.5,62.9,66.7,76.1v13.4H78.7c-43.4,0-78.7,34.8-78.7,78.1v84.2    c0,4.4,3.7,7.6,8.1,7.6h155.5l199.2-0.6c0.4,0,0.9,0,1.3,0c6,1,12.1,1.5,18.2,1.5c64.9,0.2,117.7-52.3,117.9-117.2    C500.5,302.95,448.1,250.15,383.2,249.95z M46.1,196.05c-0.1-3.4,1.2-6.8,3.5-9.3c0.5-0.5,1.6-1,1.6-1.4v11.9    c0,3.3,0.2,6.6,0.5,9.8C48,204.55,46,200.35,46.1,196.05z M274.1,197.25v-12.8c1.1,0.6,2,1.4,2.9,2.3c2.3,2.6,3.5,5.9,3.4,9.3    c0,5.3-2.8,9.9-6.9,11.8C273.8,204.35,274.1,200.85,274.1,197.25z M292.4,143.25c-2.7-0.2-5.4-0.6-8.1-1.4l49.6-35    C332.5,128.35,313.9,144.65,292.4,143.25z M331.1,89.35l-57,40.3v-3c0-3.7-0.2-7.5-0.6-11.2l49.7-38.2    C326.5,80.75,329.2,84.85,331.1,89.35z M309.2,67.85l-39,29.9c-1.6-5.9-3.7-11.8-6.3-17.3C274.5,66.65,293,61.55,309.2,67.85z     M95.1,59.25c17.8-18,42.1-28,67.4-28c2.6,0,5.2,0.1,7.8,0.3c-28,27-58.1,32.6-79.5,32.3C92.2,62.25,93.7,60.65,95.1,59.25z     M79.9,79.15c4.3,0.4,8.7,0.7,13,0.7c26.4,0,63.3-8.2,96.4-44.8c6.2,1.8,12.1,4.2,17.8,7.2c-22.1,34.1-52.2,54.2-89.7,59.8    c-15.5,2.2-31.3,1.9-46.7-1C72.8,93.45,75.9,86.05,79.9,79.15z M67.7,116.85c9.6,1.8,19.4,2.7,29.3,2.7c7.4,0,14.8-0.5,22.1-1.6    c29.6-4.2,70.6-19.4,101.5-67.1c11.1,8.4,20.2,19.2,26.6,31.6c0.2,0.7,0.6,1.3,1,1.9c4.4,8.7,7.4,18,8.8,27.7    c0.8,4.8,1.2,9.7,1.2,14.6v4.9c-13.3-10.2-23.2-24.3-28.1-40.3c-1.1-4.3-5.5-6.9-9.8-5.8c-2.1,0.5-3.9,1.9-5,3.7    c-39.1,67.4-124.2,55.4-148.2,50.6c0,0,0-13.1,0-13.1C67.1,123.35,67.3,120.15,67.7,116.85z M68.8,214.65l-0.1-0.1    c-1-5.7-1.6-11.5-1.6-17.3v-41.1c13.2,2.4,26.5,3.6,39.9,3.6c35.7,0,82.7-9,113.4-49.3c8.4,16.8,21.5,30.9,37.7,40.4v46.5    c0,5.8-0.6,11.6-1.7,17.3c-9.5,51.8-59.3,86.1-111.1,76.5C106.5,283.85,76.1,253.45,68.8,214.65z M156.2,468.15h-0.1h-140v-75.9    c0-34.5,28.2-62.1,62.7-62.1h7.3v31.7c-7.6,1.5-14.6,5.2-20,10.7c-7.6,7.4-11.9,17.5-12,28v44.3c0.1,4.5,3.7,8.1,8.2,8.2H75    c4.4,0,8-3.6,8-8c0-4.4-3.6-8-8-8h-4.9v-36.5c0.1-12.9,10.6-23.4,23.5-23.5H94c13,0,24.1,10.4,24.1,23.5v36.6h-8.3    c-4.4,0-8,3.6-8,8c0,4.4,3.6,8,8,8h15.9c4.5,0,8.3-3.6,8.5-8.2v-44.3c-0.1-18.9-13.5-35.2-32-38.9v-31.6h24l30,30V468.15z     M137.1,318.45v-12.7c8.3,1.9,16.9,2.8,25.4,2.9c10,0,19.9-1.3,29.6-3.9v13.6l-28.3,27.3L137.1,318.45z M172.1,468.55v-108.3    l31-30.1h20v62.4c-14.4,3.7-24.4,16.6-24.5,31.4c0.1,17.9,14.6,32.4,32.5,32.3c17.9-0.1,32.4-14.6,32.3-32.5    c0-8.5-3.4-16.7-9.4-22.7c-4.2-4-9.3-6.9-14.9-8.5v-62.4h11.7c7.5,0,10.5,1,17.7,4l1.2,0.4c-15,51.1,6.3,105.8,51.8,133.4    L172.1,468.55z M231,407.55c9.1,0,16.4,7.3,16.4,16.4c0,9.1-7.3,16.4-16.4,16.4s-16.4-7.3-16.4-16.4    C214.5,414.95,221.8,407.55,231,407.55z M382.5,469.05c-6.1,0-12.1-0.5-18.1-1.6c-55.1-10.1-91.6-62.9-81.6-118    c10-55.1,62.9-91.6,118-81.6c55.1,10.1,91.6,62.9,81.6,118C473.6,434.05,431.5,469.15,382.5,469.05z" data-original="#000000" class="active-path" fill="#033B4A"/>
	</g>
</g><g>
	<g>
		<path d="M136.1,183.85c-4.4,0-8,3.6-8,8v4.4c0,5.3-4.3,9.7-9.6,9.7c-2.5,0-4.9-1-6.7-2.8c-1.8-1.8-2.7-4.3-2.7-6.9v-4.4    c0-4.4-3.6-8-8-8c-4.4,0-8,3.6-8,8v4.4c-0.1,6.8,2.6,13.3,7.3,18.1v0.1c10,10,26.2,9.9,36.2-0.1c4.8-4.8,7.5-11.3,7.5-18.1v-4.4    C144.1,187.45,140.5,183.85,136.1,183.85z" data-original="#000000" class="active-path" fill="#033B4A"/>
	</g>
</g><g>
	<g>
		<path d="M224.1,183.85c-4.4,0-8,3.6-8,8v4.4c0.1,5.3-4.2,9.6-9.5,9.7c0,0,0,0-0.1,0c-2.5,0-4.9-1-6.7-2.8    c-1.7-1.8-2.7-4.3-2.7-6.9v-4.4c0-4.4-3.6-8-8-8c-4.4,0-8,3.6-8,8v4.4c0,6.8,2.6,13.3,7.4,18.2c4.8,4.8,11.3,7.5,18.1,7.5    c14.1,0,25.6-11.5,25.5-25.7v-4.4C232.1,187.45,228.5,183.85,224.1,183.85z" data-original="#000000" class="active-path" fill="#033B4A"/>
	</g>
</g></g> </svg>
