<?xml version="1.0"?>
<svg xmlns="http://www.w3.org/2000/svg" height="512px" viewBox="0 0 60 60" width="512px" class=""><g transform="matrix(0.989703 0 0 0.989703 0.308909 0.308909)"><link xmlns="" type="text/css" id="dark-mode" rel="stylesheet" href="" class="active-path" style=""/><style xmlns="" type="text/css" id="dark-mode-custom-style" class="active-path"/><g id="034---Radiotherapy"><path id="Shape" d="m30 0c-16.5607751.01873704-29.98126296 13.4392249-30 30v27c0 1.6568542 1.34314575 3 3 3h54c1.6568542 0 3-1.3431458 3-3v-27c-.018737-16.5607751-13.4392249-29.98126296-30-30zm-14 58v-11h28v11zm14-40c4.9966234.0110264 9.6091327 2.6825393 12.1050762 7.0111225s2.4974386 9.6588948.0039238 13.9888775h-24.218c-2.4941779-4.3299006-2.493011-9.6605661.0030623-13.9893743 2.4960732-4.3288081 7.1090533-7.0002143 12.1059377-7.0106257zm17 23v4h-34v-4zm11 16c0 .5522847-.4477153 1-1 1h-11v-11h1c1.1045695 0 2-.8954305 2-2v-4c0-1.1045695-.8954305-2-2-2h-2.626c3.2788767-6.7238756 1.458358-14.8223762-4.3826704-19.4961244-5.8410284-4.6737483-14.1416308-4.6737483-19.9826592 0-5.8410284 4.6737482-7.6615471 12.7722488-4.3826704 19.4961244h-2.626c-1.1045695 0-2 .8954305-2 2v4c0 1.1045695.8954305 2 2 2h1v11h-11c-.55228475 0-1-.4477153-1-1v-27c.00000023-15.4639728 12.5360272-27.99999958 28-27.99999958s27.9999998 12.53602678 28 27.99999958z" data-original="#000000" class="active-path" fill="#033B4A"/><path id="Shape" d="m5 53c-.55228475 0-1 .4477153-1 1v1c0 .5522847.44771525 1 1 1s1-.4477153 1-1v-1c0-.5522847-.44771525-1-1-1z" data-original="#000000" class="active-path" fill="#033B4A"/><path id="Shape" d="m5 28c-.55228475 0-1 .4477153-1 1v21c0 .5522847.44771525 1 1 1s1-.4477153 1-1v-21c0-.5522847-.44771525-1-1-1z" data-original="#000000" class="active-path" fill="#033B4A"/></g></g> </svg>
