<?xml version="1.0" encoding="utf-8"?>
<!-- Generator: Adobe Illustrator 20.1.0, SVG Export Plug-In . SVG Version: 6.00 Build 0)  -->
<svg version="1.1" id="Layer_1" xmlns="http://www.w3.org/2000/svg" xmlns:xlink="http://www.w3.org/1999/xlink" x="0px" y="0px"
	 viewBox="0 0 148 55.3" style="enable-background:new 0 0 148 55.3;" xml:space="preserve">
<style type="text/css">
	.st0{fill-rule:evenodd;clip-rule:evenodd;fill:#005092;}
	.st1{fill:#005092;}
	.st2{fill:#FFFFFF;}
	.st3{fill:#009FE3;}
</style>
<g>
	<rect x="4" y="32.1" class="st0" width="140.8" height="0.7"/>
	<g>
		<path class="st1" d="M143.9,2.3c-0.1,0-0.2,0-0.2,0h-7.2c-0.1,0-0.2,0-0.2,0c-0.6,0.1-1,0.6-1,1.2v0.3v6.6v0.3
			c0,0.6,0.4,1.1,1,1.2c0.1,0,0.2,0,0.2,0h7.2c0.1,0,0.2,0,0.2,0c0.6-0.1,1-0.6,1-1.2v-0.3V3.8V3.5C144.9,2.9,144.4,2.4,143.9,2.3z"
			/>
		<polygon class="st2" points="141.3,6.3 138.7,6.3 138.7,3.9 137.1,3.9 137.1,10.3 138.7,10.3 138.7,7.7 141.3,7.7 141.3,10.3 
			142.9,10.3 142.9,3.9 141.3,3.9 		"/>
		<path class="st3" d="M15.1,7.7l6.8,18.1h-4.1l-1.4-4H9.6l-1.4,4h-4L11,7.7H15.1z M15.3,18.8l-2.3-6.6h0l-2.4,6.6H15.3z"/>
		<path class="st3" d="M37,25.8l-7.5-9.9c-0.7-0.9-1.2-1.7-1.9-2.5h-0.1c0.1,0.7,0.1,1.8,0.1,2.7v9.7h-3.7V7.7h3.7l7.2,9.5
			c0.7,0.9,1.3,1.7,1.8,2.5h0.1c-0.1-1-0.1-2.2-0.1-3v-9h3.7v18.1H37z"/>
		<path class="st3" d="M53.5,7.7l6.8,18.1h-4.1l-1.4-4H48l-1.4,4h-4l6.8-18.1H53.5z M53.7,18.8l-2.3-6.6h-0.1L49,18.8H53.7z"/>
		<path class="st3" d="M62.2,7.7h6.1c6.4,0,10.1,3.5,10.1,8.9c0,5.6-4.2,9.2-10.4,9.2h-5.8V7.7z M68,22.6c4.5,0,6.3-2.7,6.3-5.9
			c0-3.7-2.2-5.8-6.4-5.8h-2v11.7H68z"/>
		<path class="st3" d="M81.1,16.7c0-5.5,3.8-9.3,9.3-9.3c5.5,0,9.3,3.8,9.3,9.3c0,5.6-3.8,9.3-9.3,9.3C85,26,81.1,22.2,81.1,16.7z
			 M95.7,16.7c0-3.9-2.1-6.1-5.2-6.1c-3.1,0-5.2,2.2-5.2,6.1c0,4,2.1,6.2,5.2,6.2C93.5,22.9,95.7,20.7,95.7,16.7z"/>
		<polygon class="st3" points="102.7,7.7 106.5,7.7 106.5,22.6 112.8,22.6 112.8,25.8 102.7,25.8 		"/>
		<path class="st3" d="M115.5,22.7c-0.5-1-0.8-2.2-0.8-3.7V7.7h3.8v11c0,0.9,0.2,1.8,0.5,2.4c0.6,1.2,1.9,1.8,3.5,1.8
			c1.7,0,2.9-0.6,3.5-1.8c0.4-0.6,0.5-1.4,0.5-2.4v-11h3.8V19c0,1.5-0.3,2.7-0.8,3.7c-1.2,2.3-3.7,3.4-7,3.4
			C119.2,26.1,116.7,25,115.5,22.7z"/>
	</g>
	<g>
		<path class="st1" d="M4.8,38.3c0-0.4,0-0.5-0.5-0.6c-0.2,0-0.2-0.1-0.2-0.2c0-0.1,0.1-0.1,0.2-0.1c0.2,0,0.6,0,0.9,0
			c0.4,0,0.6,0,0.9,0c0.1,0,0.2,0,0.2,0.1s-0.1,0.1-0.2,0.1c-0.5,0.1-0.5,0.3-0.5,0.5c0,0.3,0,0.8,0,2.5c0,0.5,0,1,0,1.3
			c0,0.5,0.1,0.6,0.6,0.7c0.2,0,0.2,0.1,0.2,0.1c0,0.1-0.1,0.1-0.2,0.1c-0.4,0-1-0.1-1.3-0.1c-0.3,0-0.3,0-0.6,0
			c-0.2,0-0.2-0.1-0.2-0.1c0-0.1,0.1-0.1,0.3-0.1c0.4-0.1,0.5-0.2,0.5-0.6c0-0.3,0-1.2,0-1.9C4.8,39.7,4.8,38.6,4.8,38.3z"/>
		<path class="st1" d="M6.9,39.8c0.1-0.1,0.4-0.2,0.6-0.2c0.1-0.1,0.2-0.1,0.2-0.1c0,0,0.1,0.1,0.1,0.1c0,0.1,0,0.3,0,0.4
			c0,0,0,0,0,0c0.3-0.2,0.8-0.5,1.1-0.5c0.4,0,0.6,0.2,0.8,0.3c0.2,0.2,0.3,0.6,0.3,1c0,0.2,0,1.4,0,1.5c0,0.1,0.1,0.2,0.3,0.3
			c0.2,0,0.2,0.1,0.2,0.1c0,0.1-0.1,0.1-0.2,0.1c-0.2,0-0.4,0-0.6,0c-0.2,0-0.5,0-0.6,0c-0.1,0-0.2,0-0.2-0.1c0-0.1,0.1-0.1,0.2-0.1
			c0.2-0.1,0.2-0.1,0.3-0.4c0-0.3,0-1.3,0-1.5c0-0.3-0.2-0.5-0.3-0.6C9,40,8.7,39.9,8.5,39.9c-0.4,0-0.6,0.1-0.7,0.3
			c0,0-0.1,0.1-0.1,0.2c0,0.1,0,1.9,0,2c0,0.1,0,0.2,0.3,0.3c0.1,0,0.2,0.1,0.2,0.1c0,0.1-0.1,0.1-0.2,0.1c-0.1,0-0.3,0-0.5,0
			c-0.3,0-0.6,0-0.7,0c-0.1,0-0.2,0-0.2-0.1c0-0.1,0.1-0.1,0.2-0.1C7,42.6,7,42.5,7.1,42.2c0-0.3,0-1,0-1.8c0-0.1,0-0.2-0.2-0.3
			c-0.1-0.1-0.2-0.1-0.2-0.1C6.7,39.9,6.8,39.8,6.9,39.8z"/>
		<path class="st1" d="M15.4,37.6c0.1,0.2,0.2,0.6,0.4,1c0.4,1.2,1.1,2.9,1.2,3.2c0.3,0.7,0.4,0.8,0.8,0.8c0.1,0,0.2,0.1,0.2,0.1
			c0,0.1-0.1,0.1-0.3,0.1c-0.3,0-0.7,0-1.1,0c-0.3,0-0.4,0-0.6,0c-0.2,0-0.3-0.1-0.3-0.1c0,0,0.1-0.1,0.2-0.1
			c0.4-0.1,0.4-0.3,0.3-0.4c-0.1-0.3-0.3-0.9-0.5-1.4c0,0,0-0.1-0.3-0.1c-0.5,0-1.2,0-1.4,0c0,0-0.1,0-0.1,0.1
			c-0.2,0.5-0.4,1.3-0.4,1.5c0,0.1,0,0.2,0.4,0.4c0.1,0,0.2,0.1,0.2,0.2c0,0.1-0.1,0.1-0.2,0.1c-0.1,0-0.4,0-0.7,0
			c-0.3,0-0.7,0-0.9,0c-0.1,0-0.2,0-0.2-0.1c0-0.1,0.1-0.1,0.2-0.2c0.4-0.1,0.5-0.2,0.8-0.7c0.2-0.4,1.1-3,1.5-3.9
			c0-0.1,0.1-0.1,0.1-0.2c0,0,0,0,0-0.1c0.1-0.1,0.2-0.3,0.3-0.4c0.1-0.1,0.1-0.1,0.1-0.1C15.3,37.4,15.4,37.4,15.4,37.6z
			 M15.7,40.3c-0.1-0.4-0.6-1.7-0.7-1.8c0-0.1,0-0.1-0.1,0c-0.2,0.4-0.6,1.6-0.7,1.8c0,0,0,0.1,0,0.1C14.7,40.4,15.4,40.4,15.7,40.3
			C15.7,40.4,15.7,40.3,15.7,40.3z"/>
		<path class="st1" d="M19.4,40c-0.1,0-0.1,0.1-0.1,0.2c0,0.1,0,1.8,0,2c0,0.3,0.1,0.4,0.4,0.5c0.2,0,0.2,0.1,0.2,0.2
			c0,0.1-0.1,0.1-0.2,0.1c-0.1,0-0.6,0-0.8,0c-0.3,0-0.6,0-0.6,0c-0.1,0-0.2,0-0.2-0.1c0,0,0.1-0.1,0.2-0.1c0.4-0.1,0.4-0.2,0.4-0.6
			c0-0.3,0-1.6,0-2c0,0,0-0.1-0.1-0.1l-0.3,0c-0.1,0-0.1-0.1-0.1-0.2c0,0,0.3-0.2,0.4-0.2c0.1-0.1,0.1-0.1,0.1-0.1
			c0-0.4,0.1-0.8,0.2-1.1c0.2-0.3,0.5-0.7,0.8-0.9c0.2-0.1,0.6-0.3,1-0.3c0.4,0,0.7,0.1,0.9,0.3c0,0,0,0,0.1,0
			c0.3-0.3,0.8-0.5,1.2-0.5c0.6,0,0.8,0.2,0.9,0.4c0.1,0.1,0.1,0.1,0.1,0.2c0,0.2-0.3,0.4-0.4,0.4c0,0-0.2-0.1-0.3-0.3
			c-0.2-0.2-0.4-0.3-0.7-0.3c-0.2,0-0.4,0.1-0.5,0.3c-0.2,0.2-0.4,0.8-0.4,2c0,0,0,0.1,0.1,0.1c0.2,0,0.5,0,0.8,0
			c0.7,0,0.9-0.1,1-0.1c0.1,0,0.2-0.1,0.2-0.1c0,0,0,0.3,0,0.8c0,1.6,0,1.9,0,2.2c0,0.2,0.1,0.2,0.4,0.3c0.2,0.1,0.2,0.1,0.2,0.1
			c0,0.1-0.1,0.1-0.2,0.1c-0.2,0-0.4,0-0.7,0c-0.3,0-0.5,0-0.7,0c-0.1,0-0.2,0-0.2-0.1c0,0,0-0.1,0.2-0.1c0.2-0.1,0.3-0.2,0.3-0.3
			c0-0.5,0-2,0-2.3c0-0.1,0-0.1-0.1-0.1c-0.2,0-1.1,0-1.4,0c0,0-0.1,0-0.1,0.1c0,0.2,0,2,0,2.1c0,0.3,0,0.4,0.5,0.5
			c0.1,0,0.2,0.1,0.2,0.1c0,0.1-0.1,0.1-0.2,0.1c-0.1,0-0.6,0-0.8,0c-0.3,0-0.5,0-0.7,0c-0.1,0-0.2,0-0.2-0.1c0-0.1,0.1-0.1,0.2-0.1
			c0.4-0.1,0.4-0.2,0.4-0.6c0-0.3,0-1.6,0-2.1c0,0,0-0.1-0.1-0.1H19.4z M20.9,39.6C20.9,39.6,21,39.6,20.9,39.6
			c0.1-0.7,0.3-1.3,0.5-1.6c0,0,0-0.1,0-0.1c-0.1-0.2-0.5-0.4-1-0.4c-0.2,0-0.5,0.1-0.7,0.4c-0.2,0.2-0.3,0.8-0.3,1.6
			c0,0,0,0.1,0.1,0.1H20.9z"/>
		<path class="st1" d="M25,37.2c0.4-0.1,0.6-0.2,0.9-0.3c0,0,0.1,0.1,0.1,0.1c0,0.2-0.1,1.2-0.1,2.3c0,1.2,0,2.8,0,3.1
			c0,0.2,0.1,0.3,0.4,0.4c0.1,0,0.2,0.1,0.2,0.1c0,0.1-0.1,0.1-0.2,0.1c-0.2,0-0.6,0-0.7,0c-0.2,0-0.6,0-0.7,0c-0.2,0-0.2,0-0.2-0.1
			c0-0.1,0.1-0.1,0.2-0.1c0.4-0.1,0.4-0.2,0.4-0.7c0-0.3,0.1-1.2,0.1-2.6c0-0.6,0-1.5,0-1.8c0-0.1,0-0.1-0.2-0.2
			c-0.1-0.1-0.2-0.1-0.2-0.2C24.8,37.3,24.9,37.3,25,37.2z"/>
		<path class="st1" d="M27.1,39.8c0.3-0.1,0.7-0.3,0.8-0.3c0,0,0.1,0.1,0.1,0.1c0,0.1,0,1.2,0,1.7c0,0.5,0,0.8,0,1.1
			c0,0.3,0.2,0.3,0.4,0.4c0.1,0,0.2,0.1,0.2,0.1c0,0-0.1,0.1-0.2,0.1c-0.1,0-0.5,0-0.7,0c-0.3,0-0.6,0-0.7,0c-0.1,0-0.2,0-0.2-0.1
			c0-0.1,0.1-0.1,0.2-0.1c0.2-0.1,0.3-0.2,0.3-0.2c0-0.1,0-0.6,0-0.9c0,0,0-1.2,0-1.3c0-0.1-0.1-0.1-0.3-0.3c0,0-0.1-0.1-0.1-0.1
			C27,39.9,27,39.8,27.1,39.8z M28.1,38.2c0,0.2-0.2,0.4-0.4,0.4c-0.1,0-0.2,0-0.3-0.1c-0.1-0.1-0.1-0.2-0.1-0.3
			c0-0.1,0-0.2,0.1-0.3c0.1-0.1,0.2-0.1,0.3-0.1C28,37.8,28.1,38.1,28.1,38.2z"/>
		<path class="st1" d="M31.2,39.9c0.1,0.2,0.2,0.3,0.2,0.7c0,0.3,0,1.4,0,1.5c0,0.4,0.3,0.4,0.3,0.4c0,0,0.2-0.1,0.3-0.1
			c0,0,0,0,0.1,0c0,0,0,0.1,0,0.1c0,0.2-0.4,0.5-0.8,0.5c-0.2,0-0.4-0.1-0.5-0.4c0,0,0,0-0.1,0c-0.3,0.2-0.7,0.4-0.8,0.4
			c-0.1,0-0.3,0-0.3,0c-0.3,0-0.6-0.4-0.6-0.8c0-0.1,0.1-0.3,0.2-0.4c0.1-0.1,0.2-0.2,0.3-0.2c0.1-0.1,0.8-0.2,1-0.3
			c0.2-0.1,0.2-0.1,0.2-0.2c0-0.1,0-0.6,0-0.7c0-0.2-0.2-0.6-0.7-0.6c-0.2,0-0.3,0-0.3,0.1c0,0-0.1,0.2-0.1,0.3c0,0,0,0.1-0.1,0.1
			c-0.1,0.1-0.5,0.3-0.5,0.3c0,0-0.1-0.1-0.1-0.1c0-0.2,0.2-0.5,0.6-0.7c0.2-0.2,0.6-0.3,0.8-0.3C30.9,39.5,31.1,39.7,31.2,39.9z
			 M30.7,42.4c0,0,0.1-0.2,0.1-0.2c0-0.2,0-0.5,0-0.7c0,0,0-0.1-0.1-0.1c-0.2,0-0.6,0.1-0.9,0.3c-0.1,0.1-0.2,0.1-0.2,0.3
			c0,0.4,0.4,0.5,0.5,0.5C30.3,42.6,30.5,42.5,30.7,42.4z"/>
		<path class="st1" d="M34.4,39.6C34.4,39.6,34.5,39.6,34.4,39.6c0.1,0,0.1,0.3,0.1,0.4c0,0.1-0.2,0.1-0.2,0.1h-0.9
			c0,0-0.1,0-0.1,0.1c0,0.2,0,1.4,0,1.8c0,0.2,0.1,0.3,0.1,0.4c0.2,0.1,0.3,0.2,0.5,0.2c0.1,0,0.3,0,0.4-0.1c0.1,0,0.1,0,0.1,0
			c0,0,0.1,0,0.1,0.1c0,0.1-0.1,0.2-0.1,0.2c-0.2,0.2-0.5,0.4-0.9,0.4c-0.3,0-0.6-0.2-0.7-0.4c-0.1-0.1-0.1-0.3-0.1-0.6
			c0-0.3,0-1.6,0-1.9c0-0.1-0.2-0.1-0.3-0.2c-0.1,0-0.1-0.1-0.1-0.1c0,0,0-0.1,0.1-0.1c0.3-0.2,0.6-0.4,0.7-0.6
			c0.1-0.1,0.2-0.2,0.2-0.2c0,0,0.1,0.1,0.1,0.1v0.4c0,0,0,0.1,0.1,0.1C33.5,39.6,34.4,39.6,34.4,39.6z"/>
		<path class="st1" d="M35.1,39.8c0.3-0.1,0.7-0.3,0.8-0.3c0,0,0.1,0.1,0.1,0.1c0,0.1-0.1,1.2-0.1,1.7c0,0.5,0,0.8,0,1.1
			c0,0.3,0.2,0.3,0.4,0.4c0.1,0,0.2,0.1,0.2,0.1c0,0-0.1,0.1-0.2,0.1c-0.1,0-0.5,0-0.7,0c-0.3,0-0.6,0-0.7,0c-0.1,0-0.2,0-0.2-0.1
			c0-0.1,0.1-0.1,0.2-0.1c0.2-0.1,0.3-0.2,0.3-0.2c0-0.1,0-0.6,0-0.9c0,0,0-1.2,0-1.3c0-0.1-0.1-0.1-0.3-0.3C35,40,35,39.9,35,39.9
			C35,39.9,35,39.8,35.1,39.8z M36.1,38.2c0,0.2-0.2,0.4-0.4,0.4c-0.1,0-0.2,0-0.3-0.1c-0.1-0.1-0.1-0.2-0.1-0.3
			c0-0.1,0-0.2,0.1-0.3c0.1-0.1,0.2-0.1,0.3-0.1C36,37.8,36.1,38.1,36.1,38.2z"/>
		<path class="st1" d="M40.5,41.2c0,0.7-0.4,1.2-0.7,1.4c-0.3,0.2-0.7,0.3-1,0.3c-0.4,0-0.8-0.2-1.1-0.4c-0.4-0.3-0.6-0.9-0.6-1.3
			c0-0.6,0.3-1,0.6-1.3c0.3-0.2,0.7-0.5,1.2-0.5C39.6,39.5,40.5,40.2,40.5,41.2z M38.1,40c-0.2,0.2-0.4,0.6-0.4,1.1
			c0,0.3,0,0.5,0.1,0.7c0.2,0.6,0.7,0.9,1.1,0.9c0.1,0,0.3,0,0.5-0.3c0.2-0.2,0.4-0.7,0.4-1.1c0-0.4-0.1-0.9-0.4-1.3
			c-0.2-0.2-0.5-0.3-0.7-0.3C38.5,39.8,38.3,39.9,38.1,40z"/>
		<path class="st1" d="M41.3,39.8c0.1-0.1,0.4-0.2,0.6-0.2c0.1-0.1,0.2-0.1,0.2-0.1c0,0,0.1,0.1,0.1,0.1c0,0.1,0,0.3,0,0.4
			c0,0,0,0,0.1,0c0.3-0.2,0.8-0.5,1.1-0.5c0.4,0,0.6,0.2,0.8,0.3c0.2,0.2,0.3,0.6,0.3,1c0,0.2,0,1.4,0,1.5c0,0.1,0.1,0.2,0.3,0.3
			c0.2,0,0.2,0.1,0.2,0.1c0,0.1-0.1,0.1-0.3,0.1c-0.2,0-0.4,0-0.6,0c-0.2,0-0.5,0-0.6,0c-0.1,0-0.2,0-0.2-0.1c0-0.1,0.1-0.1,0.2-0.1
			c0.2-0.1,0.2-0.1,0.3-0.4c0-0.3,0-1.3,0-1.5c0-0.3-0.2-0.5-0.3-0.6c-0.1-0.1-0.3-0.2-0.5-0.2c-0.4,0-0.6,0.1-0.7,0.3
			c0,0-0.1,0.1-0.1,0.2c0,0.1,0,1.9,0,2c0,0.1,0,0.2,0.3,0.3c0.1,0,0.2,0.1,0.2,0.1c0,0.1-0.1,0.1-0.2,0.1c-0.1,0-0.3,0-0.5,0
			c-0.3,0-0.6,0-0.7,0c-0.1,0-0.2,0-0.2-0.1c0-0.1,0.1-0.1,0.2-0.1c0.3-0.1,0.3-0.2,0.4-0.5c0-0.3,0-1,0-1.8c0-0.1,0-0.2-0.2-0.3
			c-0.1-0.1-0.2-0.1-0.2-0.1C41.2,39.9,41.3,39.8,41.3,39.8z"/>
		<path class="st1" d="M48.1,39.6c0.1,0,0.2,0,0.2,0.1c0,0.1-0.1,0.1-0.2,0.1c-0.2,0-0.2,0.1-0.2,0.3c0.1,0.3,0.7,1.8,0.7,1.9
			c0,0.1,0.1,0,0.1,0c0.1-0.2,0.4-0.9,0.6-1.3c0-0.1,0-0.1,0-0.2c0-0.1-0.1-0.3-0.1-0.4c-0.1-0.2-0.2-0.3-0.3-0.4
			c-0.1,0-0.2-0.1-0.2-0.1c0-0.1,0.1-0.1,0.2-0.1c0.1,0,0.4,0,0.6,0c0.2,0,0.4,0,0.6,0c0.1,0,0.2,0,0.2,0.1c0,0.1-0.1,0.1-0.2,0.1
			c-0.2,0-0.2,0.2-0.2,0.2c0,0.1,0,0.1,0.1,0.3c0,0.1,0.5,1.3,0.6,1.7c0,0.1,0.1,0,0.1,0c0.1-0.3,0.4-1,0.6-1.4
			c0.1-0.2,0.1-0.4,0.1-0.5c0-0.1,0-0.2-0.3-0.3c-0.1,0-0.2-0.1-0.2-0.1c0-0.1,0.1-0.1,0.2-0.1c0.1,0,0.4,0,0.5,0c0.3,0,0.5,0,0.6,0
			c0.1,0,0.2,0,0.2,0.1c0,0.1-0.1,0.1-0.2,0.1c-0.3,0.1-0.3,0.2-0.4,0.4c-0.3,0.5-0.6,1.2-0.8,1.8c-0.1,0.4-0.3,0.6-0.3,0.9
			c0,0.1-0.1,0.1-0.1,0.1c0,0-0.1-0.1-0.2-0.1c0-0.1-0.1-0.4-0.2-0.6C50,42,49.7,41.3,49.6,41c0,0-0.1,0-0.1,0
			c-0.2,0.4-0.5,1.1-0.8,1.7c0,0.1-0.1,0.3-0.2,0.3c-0.1,0-0.1,0-0.2-0.1c0,0-0.1-0.4-0.2-0.7c-0.1-0.2-0.5-1.4-0.7-1.8
			c-0.1-0.3-0.2-0.5-0.5-0.6c-0.1,0-0.2-0.1-0.2-0.1c0-0.1,0.1-0.1,0.2-0.1c0.1,0,0.4,0,0.6,0C47.7,39.6,48,39.6,48.1,39.6z"/>
		<path class="st1" d="M52.8,39.8c0.3-0.1,0.7-0.3,0.8-0.3c0,0,0.1,0.1,0.1,0.1c0,0.1,0,1.2,0,1.7c0,0.5,0,0.8,0,1.1
			c0,0.3,0.2,0.3,0.4,0.4c0.1,0,0.2,0.1,0.2,0.1c0,0-0.1,0.1-0.2,0.1c-0.1,0-0.5,0-0.7,0c-0.3,0-0.6,0-0.7,0c-0.1,0-0.2,0-0.2-0.1
			c0-0.1,0.1-0.1,0.2-0.1c0.2-0.1,0.3-0.2,0.3-0.2c0-0.1,0-0.6,0-0.9c0,0,0-1.2,0-1.3c0-0.1-0.1-0.1-0.3-0.3c0,0-0.1-0.1-0.1-0.1
			C52.6,39.9,52.7,39.8,52.8,39.8z M53.7,38.2c0,0.2-0.2,0.4-0.4,0.4c-0.1,0-0.2,0-0.3-0.1c-0.1-0.1-0.1-0.2-0.1-0.3
			c0-0.1,0-0.2,0.1-0.3c0.1-0.1,0.2-0.1,0.3-0.1C53.6,37.8,53.7,38.1,53.7,38.2z"/>
		<path class="st1" d="M56.8,39.6C56.8,39.6,56.8,39.6,56.8,39.6c0.1,0,0.1,0.3,0.1,0.4c0,0.1-0.2,0.1-0.2,0.1h-0.9
			c0,0-0.1,0-0.1,0.1c0,0.2,0,1.4,0,1.8c0,0.2,0,0.3,0.1,0.4c0.2,0.1,0.3,0.2,0.5,0.2c0.1,0,0.3,0,0.4-0.1c0.1,0,0.1,0,0.1,0
			c0,0,0.1,0,0.1,0.1c0,0.1-0.1,0.2-0.1,0.2c-0.2,0.2-0.5,0.4-0.9,0.4c-0.3,0-0.6-0.2-0.7-0.4C55,42.5,55,42.3,55,42.1
			c0-0.3,0-1.6,0-1.9c0-0.1-0.1-0.1-0.3-0.2c-0.1,0-0.1-0.1-0.1-0.1c0,0,0-0.1,0-0.1c0.3-0.2,0.6-0.4,0.7-0.6
			c0.1-0.1,0.2-0.2,0.2-0.2c0,0,0.1,0.1,0.1,0.1v0.4c0,0,0,0.1,0.1,0.1C55.9,39.6,56.7,39.6,56.8,39.6z"/>
		<path class="st1" d="M60.3,39.9c0.2,0.2,0.2,0.5,0.2,0.9c0,0.5,0,1.1,0,1.6c0,0.2,0.1,0.3,0.3,0.3c0.2,0,0.2,0.1,0.2,0.1
			c0,0.1-0.1,0.1-0.2,0.1c-0.3,0-0.4,0-0.7,0c-0.2,0-0.4,0-0.6,0c-0.1,0-0.2,0-0.2-0.1c0-0.1,0.1-0.1,0.2-0.1
			c0.2-0.1,0.2-0.1,0.3-0.4c0-0.2,0-1.1,0-1.2c0-0.5,0-0.7-0.1-0.8c-0.1-0.2-0.4-0.3-0.7-0.3c-0.4,0-0.6,0.2-0.7,0.2
			c0,0-0.1,0.1-0.1,0.4c0,0.3,0,1.4,0,1.7c0,0.3,0.1,0.3,0.3,0.4c0.1,0,0.2,0.1,0.2,0.1c0,0.1-0.1,0.1-0.2,0.1c-0.1,0-0.5,0-0.7,0
			c-0.2,0-0.5,0-0.6,0c-0.1,0-0.2,0-0.2-0.1c0,0,0.1-0.1,0.2-0.1c0.2-0.1,0.3-0.2,0.3-0.5c0-0.4,0.1-1.3,0.1-3.5c0-0.3,0-0.6,0-0.9
			c0-0.2,0-0.2-0.3-0.4c0,0-0.1-0.1-0.1-0.2c0,0,0,0,0,0c0.3-0.1,0.6-0.2,0.8-0.3c0,0,0.1-0.1,0.2-0.1c0,0,0,0.1,0,0.1
			c-0.1,0.6-0.1,2.7-0.1,2.9c0,0.1,0,0.1,0.1,0.1c0.3-0.3,0.7-0.5,1.1-0.5C59.8,39.5,60.1,39.7,60.3,39.9z"/>
		<path class="st1" d="M3.3,52.4c0,0,0.2-0.1,0.2-0.1c0,0,0.2,0.1,0.3,0.1c0.2,0.1,0.3,0.2,0.4,0.2c0.1,0,0.2,0,0.3-0.2
			c0.1-0.1,0.2-0.3,0.2-0.7c0-0.5,0.1-1.4,0.1-2.6c0-1.2,0-2.1-0.1-2.5c0-0.2-0.1-0.4-0.5-0.5C4.1,46.1,4,46.1,4,46
			c0-0.1,0.1-0.1,0.2-0.1c0.3,0,0.6,0,0.9,0c0.3,0,0.6,0,0.9,0c0.1,0,0.2,0,0.2,0.1c0,0.1-0.1,0.1-0.3,0.2c-0.3,0.1-0.5,0.2-0.5,0.6
			c0,0.7,0,3.1,0,3.8c0,1-0.5,1.8-0.9,2.1c-0.4,0.3-0.7,0.4-1,0.4c-0.3,0-0.5-0.2-0.5-0.3C3.1,52.7,3.2,52.5,3.3,52.4z"/>
		<path class="st1" d="M12.8,48.6c0,1.2-0.6,2-1.2,2.4c-0.5,0.4-1.2,0.5-1.7,0.5c-0.9,0-1.7-0.4-2.2-1c-0.4-0.5-0.7-1.2-0.7-1.9
			c0-1,0.5-1.7,1.1-2.3c0.4-0.3,1.1-0.6,1.7-0.6C11.5,45.8,12.8,47,12.8,48.6z M8.6,46.5c-0.4,0.4-0.7,1-0.7,2
			c0,1.3,0.9,2.7,2.3,2.7c0.7,0,1-0.3,1.1-0.4c0.3-0.3,0.7-1,0.7-2c0-0.9-0.4-1.8-1-2.3c-0.3-0.3-0.9-0.5-1.3-0.5
			C9.4,46,8.8,46.2,8.6,46.5z"/>
		<path class="st1" d="M15.2,48.4c0.5,0,1.6,0,3.1,0c0.1,0,0.1-0.1,0.1-0.2c0-0.1,0-1.2,0-1.5c0-0.3-0.1-0.4-0.5-0.5
			c-0.1,0-0.2-0.1-0.2-0.2c0-0.1,0.1-0.1,0.3-0.1c0.1,0,0.6,0,0.9,0c0.3,0,0.7,0,0.8,0c0.1,0,0.2,0,0.2,0.1c0,0-0.1,0.1-0.2,0.1
			c-0.4,0.1-0.4,0.2-0.4,0.5c0,0.4-0.1,1.3-0.1,2.8c0,0.4,0,1.1,0,1.2c0,0.3,0.1,0.4,0.5,0.5c0.1,0,0.2,0.1,0.2,0.2
			c0,0.1-0.1,0.1-0.2,0.1c-0.1,0-0.4,0-0.7,0c-0.2,0-0.8,0.1-1,0.1c-0.1,0-0.2,0-0.2-0.1c0-0.1,0.1-0.1,0.2-0.1
			c0.5-0.1,0.5-0.2,0.5-0.8c0-0.4,0-0.9,0-1.4c0-0.1,0-0.2-0.1-0.2c-1.3,0-3,0-3.1,0c0,0-0.1,0.1-0.1,0.1c0,0.2,0,1.3,0,1.5
			c0,0.4,0.1,0.5,0.5,0.7c0.2,0,0.2,0.1,0.3,0.2c0,0.1-0.1,0.1-0.2,0.1c-0.1,0-0.6,0-0.9,0c-0.2,0-0.5,0-0.8,0c-0.2,0-0.3,0-0.3-0.1
			c0-0.1,0.1-0.1,0.2-0.2c0.4-0.1,0.5-0.2,0.5-0.5c0-0.3,0.1-1.3,0.1-2.7c0-0.2,0-0.9,0-1.3c0-0.3-0.1-0.4-0.4-0.5
			c-0.2,0-0.2-0.1-0.2-0.2c0-0.1,0.1-0.1,0.2-0.1c0.2,0,0.5,0,0.8,0c0.4,0,0.6,0,0.8,0c0.2,0,0.3,0,0.3,0.1c0,0.1-0.1,0.1-0.2,0.2
			c-0.4,0.1-0.4,0.2-0.4,0.6c0,0.3,0,1.4,0,1.5C15.1,48.4,15.1,48.4,15.2,48.4z"/>
		<path class="st1" d="M20.6,45.9c0.2,0,0.6,0,1,0c0.1,0,0.1,0.1,0.2,0.1c0.1,0.2,0.3,0.4,0.7,0.8c0.4,0.5,2.2,2.5,2.8,3.1
			c0.1,0,0.1,0,0.1-0.1c0-0.3,0-1.2,0-2.4c0-0.3,0-0.6,0-0.8c0-0.2-0.1-0.4-0.5-0.5c-0.2,0-0.2-0.1-0.2-0.2c0-0.1,0.1-0.1,0.2-0.1
			c0.2,0,0.5,0,0.7,0c0.3,0,0.6,0,0.8,0c0.1,0,0.2,0,0.2,0.1c0,0.1-0.1,0.1-0.2,0.2c-0.4,0.1-0.5,0.2-0.5,0.6c0,0.3-0.1,2-0.1,3.4
			c0,0.4,0.1,1,0.1,1.1c0,0.1,0,0.2-0.1,0.2c-0.1,0-0.3-0.2-0.4-0.3c-0.1-0.2-0.3-0.4-0.5-0.7c-0.8-0.9-2.2-2.6-3-3.5
			c0,0-0.1,0-0.1,0c0,0.2,0,0.5,0,1.1c0,0.8,0,2.1,0,2.3c0,0.4,0.1,0.5,0.5,0.6c0.2,0,0.2,0.1,0.2,0.2c0,0.1-0.1,0.1-0.3,0.1
			c-0.2,0-0.6,0-0.9,0c-0.2,0-0.4,0-0.5,0c-0.1,0-0.2,0-0.2-0.1c0-0.1,0.1-0.1,0.2-0.1c0.4-0.1,0.6-0.2,0.6-0.8
			c0-0.7,0.2-2.7,0.2-3.4c0-0.3,0-0.4-0.1-0.4c-0.2-0.3-0.3-0.3-0.7-0.4c-0.1,0-0.2-0.1-0.2-0.1C20.4,45.9,20.4,45.9,20.6,45.9z"/>
		<path class="st1" d="M30,45.9c0,0,0.1,0.1,0.1,0.2c0,0.2,0.1,0.6,0.1,0.7c0,0.1,0,0.2-0.1,0.2c-0.1,0-0.2-0.1-0.2-0.2
			c-0.1-0.3-0.3-0.6-0.4-0.6c-0.2-0.1-0.4-0.2-0.6-0.2c-0.6,0-1,0.4-1,1c0,0.6,0.4,0.9,1.2,1.4c0.6,0.4,1.2,0.9,1.2,1.6
			c0,0.4-0.2,0.9-0.7,1.2c-0.3,0.2-0.8,0.3-1.1,0.3c-0.3,0-0.8-0.1-1.1-0.2c-0.1-0.1-0.2-0.2-0.2-0.3c0-0.3-0.1-0.7-0.1-0.8
			c0,0,0.1-0.2,0.1-0.2c0.1,0,0.2,0.2,0.3,0.5c0.2,0.5,0.8,0.7,1.1,0.7c0.6,0,1-0.4,1-1c0-0.4-0.2-0.7-1-1.3c-0.7-0.5-1.2-1-1.2-1.7
			c0-0.4,0.2-0.8,0.5-1c0.3-0.2,0.7-0.4,1.2-0.4C29.4,45.8,29.9,45.9,30,45.9z"/>
		<path class="st1" d="M34.2,48.4c0.5,0,1.6,0,3.1,0c0.1,0,0.1-0.1,0.1-0.2c0-0.1,0-1.2,0-1.5c0-0.3-0.1-0.4-0.5-0.5
			c-0.1,0-0.2-0.1-0.2-0.2c0-0.1,0.1-0.1,0.3-0.1c0.1,0,0.6,0,0.9,0c0.3,0,0.7,0,0.8,0c0.1,0,0.2,0,0.2,0.1c0,0-0.1,0.1-0.2,0.1
			c-0.3,0.1-0.4,0.2-0.4,0.5c0,0.4-0.1,1.3-0.1,2.8c0,0.4,0,1.1,0,1.2c0,0.3,0.1,0.4,0.5,0.5c0.1,0,0.2,0.1,0.2,0.2
			c0,0.1-0.1,0.1-0.2,0.1c-0.1,0-0.4,0-0.7,0c-0.2,0-0.8,0.1-1,0.1c-0.1,0-0.2,0-0.2-0.1c0-0.1,0.1-0.1,0.2-0.1
			c0.5-0.1,0.5-0.2,0.5-0.8c0-0.4,0-0.9,0-1.4c0-0.1,0-0.2-0.1-0.2c-1.3,0-3,0-3.1,0c0,0-0.1,0.1-0.1,0.1c0,0.2,0,1.3,0,1.5
			c0,0.4,0.1,0.5,0.5,0.7c0.2,0,0.2,0.1,0.3,0.2c0,0.1-0.1,0.1-0.2,0.1c-0.1,0-0.6,0-0.9,0c-0.2,0-0.5,0-0.8,0c-0.2,0-0.3,0-0.3-0.1
			c0-0.1,0.1-0.1,0.2-0.2c0.4-0.1,0.5-0.2,0.5-0.5c0-0.3,0.1-1.3,0.1-2.7c0-0.2,0-0.9,0-1.3c0-0.3-0.1-0.4-0.4-0.5
			c-0.2,0-0.2-0.1-0.2-0.2c0-0.1,0.1-0.1,0.2-0.1c0.2,0,0.5,0,0.8,0c0.4,0,0.6,0,0.8,0c0.2,0,0.3,0,0.3,0.1c0,0.1-0.1,0.1-0.2,0.2
			c-0.4,0.1-0.4,0.2-0.4,0.6c0,0.3,0,1.4,0,1.5C34.1,48.4,34.2,48.4,34.2,48.4z"/>
		<path class="st1" d="M45.4,48.6c0,1.2-0.6,2-1.2,2.4c-0.5,0.4-1.2,0.5-1.7,0.5c-0.9,0-1.7-0.4-2.2-1c-0.4-0.5-0.7-1.2-0.7-1.9
			c0-1,0.5-1.7,1.1-2.3c0.4-0.3,1.1-0.6,1.7-0.6C44.1,45.8,45.4,47,45.4,48.6z M41.2,46.5c-0.4,0.4-0.7,1-0.7,2
			c0,1.3,0.9,2.7,2.3,2.7c0.7,0,1-0.3,1.1-0.4c0.3-0.3,0.7-1,0.7-2c0-0.9-0.4-1.8-1-2.3c-0.3-0.3-0.9-0.5-1.3-0.5
			C42,46,41.5,46.2,41.2,46.5z"/>
		<path class="st1" d="M48.1,46.1c-0.1,0-0.2,0-0.2,0.1c0,0-0.1,0.1-0.1,0.3c0,0.2,0,1.2,0,2.2c0,0.8,0,1.5,0,1.7
			c0,0.5,0.1,0.6,0.5,0.7c0.2,0,0.2,0.1,0.2,0.2c0,0.1-0.1,0.1-0.3,0.1c-0.2,0-0.5,0-0.9,0c-0.2,0-0.6,0-0.8,0c-0.1,0-0.2,0-0.2-0.1
			c0-0.1,0.1-0.1,0.2-0.1c0.5-0.1,0.6-0.3,0.6-0.6c0-0.4,0-1.1,0-1.5c0-0.3,0-2.1,0-2.3c0-0.3,0-0.4-0.5-0.5c-0.2,0-0.3-0.1-0.3-0.1
			c0-0.1,0.1-0.1,0.2-0.1c0.1,0,0.2,0,0.3,0c0.3,0,1-0.1,1.4-0.1c0.8,0,1.3,0.2,1.6,0.5c0.4,0.4,0.5,0.9,0.5,1.1
			c0,0.8-0.3,1.1-0.6,1.3c-0.2,0.2-0.6,0.4-1,0.4c-0.1,0-0.3,0-0.4-0.1C48.1,49.1,48,49,48,49c0,0,0-0.1,0.1-0.1h0.2
			c0.4,0,1.1-0.4,1.1-1.4C49.4,46.8,48.8,46.1,48.1,46.1z"/>
		<path class="st1" d="M51.2,45.9c0.2,0,0.6,0,0.8,0c0.3,0,0.6,0,0.8,0c0.1,0,0.2,0,0.2,0.1c0,0.1-0.1,0.1-0.2,0.1
			c-0.3,0.1-0.4,0.1-0.4,0.5c0,0.3,0,1.7,0,1.8c0,0,0,0.1,0.1,0.1c0,0,0.1-0.1,0.1-0.1c0.3-0.2,1.6-1.5,1.9-1.8
			c0.2-0.2,0.2-0.4-0.1-0.5c-0.1,0-0.2-0.1-0.2-0.1c0-0.1,0.1-0.1,0.2-0.1c0.2,0,0.2,0,0.3,0c0.2,0,1,0,1.2,0c0.2,0,0.2,0,0.2,0.1
			c0,0-0.1,0.1-0.2,0.2c-0.5,0.1-0.7,0.2-1.2,0.6c-0.4,0.3-1.5,1.3-1.6,1.5c0,0,0,0.1,0,0.1c0.2,0.2,1.6,1.7,2.2,2.3
			c0.4,0.4,0.6,0.4,0.9,0.5c0.1,0,0.2,0.1,0.2,0.1c0,0.1-0.1,0.1-0.2,0.1c-0.2,0-1-0.1-1.2-0.1c-0.3,0-0.4,0-0.6,0
			c-0.1,0-0.2-0.1-0.2-0.1c0,0,0-0.1,0.4-0.1c0,0,0.1-0.1,0-0.1c-0.3-0.3-1.4-1.5-1.8-2c-0.2-0.2-0.3-0.4-0.4-0.4c0,0,0,0.1,0,0.2
			c0,0.2,0,1.5,0,1.8c0,0.2,0.1,0.3,0.5,0.4c0.2,0,0.2,0.1,0.2,0.2c0,0.1-0.1,0.1-0.2,0.1c-0.2,0-0.8,0-1,0c-0.3,0-0.5,0-0.8,0
			c-0.1,0-0.2-0.1-0.2-0.1c0-0.1,0.1-0.1,0.2-0.1c0.4-0.1,0.6-0.2,0.6-0.7c0-0.3,0-1.1,0-2c0-1.3,0-1.5,0-1.8c0-0.3-0.1-0.4-0.5-0.5
			C51,46.1,50.9,46,50.9,46C50.9,45.9,51,45.9,51.2,45.9z"/>
		<path class="st1" d="M57.6,46.7c0-0.4,0-0.5-0.5-0.6c-0.2,0-0.2-0.1-0.2-0.2c0-0.1,0.1-0.1,0.2-0.1c0.2,0,0.6,0,0.9,0
			c0.4,0,0.6,0,0.9,0c0.1,0,0.2,0,0.2,0.1c0,0.1-0.1,0.1-0.2,0.1c-0.5,0.1-0.5,0.3-0.5,0.5c0,0.3,0,0.8,0,2.5c0,0.5,0,1,0,1.3
			c0,0.5,0.1,0.6,0.6,0.7c0.2,0,0.2,0.1,0.2,0.1c0,0.1-0.1,0.1-0.2,0.1c-0.4,0-1-0.1-1.3-0.1c-0.3,0-0.3,0-0.6,0
			c-0.2,0-0.2-0.1-0.2-0.1c0-0.1,0.1-0.1,0.3-0.1c0.4-0.1,0.5-0.2,0.5-0.6c0-0.3,0-1.2,0-1.9C57.6,48.1,57.6,47,57.6,46.7z"/>
		<path class="st1" d="M59.9,45.9c0.2,0,0.6,0,1,0c0,0,0.1,0.1,0.2,0.1c0.1,0.2,0.3,0.4,0.7,0.8c0.4,0.5,2.2,2.5,2.8,3.1
			c0.1,0,0.1,0,0.1-0.1c0-0.3,0-1.2,0-2.4c0-0.3,0-0.6,0-0.8c0-0.2-0.1-0.4-0.5-0.5c-0.2,0-0.2-0.1-0.2-0.2c0-0.1,0.1-0.1,0.2-0.1
			c0.2,0,0.5,0,0.7,0c0.3,0,0.6,0,0.8,0c0.1,0,0.2,0,0.2,0.1c0,0.1-0.1,0.1-0.2,0.2c-0.4,0.1-0.5,0.2-0.5,0.6c0,0.3-0.1,2-0.1,3.4
			c0,0.4,0.1,1,0.1,1.1c0,0.1,0,0.2-0.1,0.2c-0.1,0-0.3-0.2-0.4-0.3c-0.1-0.2-0.3-0.4-0.5-0.7c-0.8-0.9-2.2-2.6-3-3.5
			c0,0-0.1,0-0.1,0c0,0.2,0,0.5,0,1.1c0,0.8,0,2.1,0,2.3c0,0.4,0.1,0.5,0.5,0.6c0.2,0,0.2,0.1,0.2,0.2c0,0.1-0.1,0.1-0.3,0.1
			c-0.2,0-0.6,0-0.9,0c-0.2,0-0.4,0-0.5,0c-0.1,0-0.2,0-0.2-0.1c0-0.1,0.1-0.1,0.2-0.1c0.4-0.1,0.6-0.2,0.6-0.8
			c0-0.7,0.2-2.7,0.2-3.4c0-0.3,0-0.4-0.1-0.4c-0.2-0.3-0.3-0.3-0.7-0.4c-0.1,0-0.2-0.1-0.2-0.1C59.6,45.9,59.7,45.9,59.9,45.9z"/>
		<path class="st1" d="M69.3,45.9c0.1,0,0.1,0.1,0.1,0.2c0,0.2,0.1,0.6,0.1,0.7c0,0.1,0,0.2-0.1,0.2c-0.1,0-0.2-0.1-0.2-0.2
			c-0.1-0.3-0.3-0.6-0.4-0.6c-0.2-0.1-0.4-0.2-0.6-0.2c-0.6,0-1,0.4-1,1c0,0.6,0.4,0.9,1.2,1.4c0.6,0.4,1.2,0.9,1.2,1.6
			c0,0.4-0.2,0.9-0.7,1.2c-0.3,0.2-0.8,0.3-1.1,0.3c-0.3,0-0.8-0.1-1.1-0.2c-0.1-0.1-0.2-0.2-0.2-0.3c0-0.3-0.1-0.7-0.1-0.8
			c0,0,0.1-0.2,0.1-0.2c0.1,0,0.2,0.2,0.3,0.5c0.2,0.5,0.8,0.7,1.1,0.7c0.6,0,1-0.4,1-1c0-0.4-0.2-0.7-1-1.3c-0.7-0.5-1.2-1-1.2-1.7
			c0-0.4,0.2-0.8,0.5-1c0.3-0.2,0.7-0.4,1.2-0.4C68.7,45.8,69.1,45.9,69.3,45.9z"/>
		<path class="st1" d="M72.2,45.9c0.5,0,0.6,0,1.1,0c0,0,0.1,0.1,0.1,0.1c0.1,0.3,0.2,0.4,0.3,0.8c0.5,1,1.4,3,1.6,3.2
			c0,0,0.1,0.1,0.1,0c0.1-0.1,1.6-3.1,1.8-3.5c0,0,0.1-0.3,0.2-0.5c0,0,0.1-0.1,0.1-0.1c0.3,0,1,0,1.1,0c0.1,0,0.2,0,0.2,0.1
			c0,0.1-0.1,0.1-0.2,0.1c-0.1,0-0.2,0.1-0.4,0.1c-0.1,0-0.3,0.2-0.3,0.6c0,2.3,0.1,3.4,0.1,3.6c0,0.4,0.1,0.5,0.5,0.6
			c0.2,0,0.2,0.1,0.2,0.2c0,0.1-0.1,0.1-0.2,0.1c-0.1,0-0.7,0-1,0c-0.2,0-0.4,0-0.6,0c-0.1,0-0.2,0-0.2-0.1c0-0.1,0.1-0.1,0.2-0.1
			c0.3-0.1,0.4-0.3,0.4-0.6c0-0.4,0-2.8,0-3.2c0,0,0-0.1-0.1-0.1c-0.1,0.2-1.1,2-1.4,2.7c-0.2,0.4-0.4,0.9-0.5,1.2
			c-0.1,0.2-0.1,0.2-0.2,0.2c0,0-0.1-0.1-0.1-0.2c-0.1-0.2-0.1-0.5-0.3-0.9c-0.5-1.1-1.1-2.4-1.5-3.2c0-0.1,0-0.1-0.1,0
			c-0.1,0.4-0.2,2.5-0.1,3.2c0,0.4,0.1,0.5,0.5,0.7c0.2,0.1,0.2,0.1,0.2,0.2c0,0.1-0.1,0.1-0.2,0.1c-0.3,0-0.6,0-0.8,0
			c-0.2,0-0.5,0-0.7,0c-0.1,0-0.2,0-0.2-0.1c0,0,0.1-0.1,0.2-0.1c0.5-0.2,0.6-0.3,0.6-0.8c0.1-0.6,0.3-3,0.3-3.6
			c0-0.1,0-0.4-0.4-0.5c-0.1,0-0.3-0.1-0.4-0.1C72.1,46.1,72,46,72,46C72,45.9,72,45.9,72.2,45.9z"/>
		<path class="st1" d="M82.3,45.9c0.3,0,0.6,0,0.8,0c0,0,0.1,0.1,0.1,0.1c0,0.4,0,0.6,0,0.8c0,0.1-0.1,0.2-0.1,0.2
			c-0.1,0-0.1-0.1-0.1-0.2c-0.1-0.4-0.3-0.5-0.6-0.6c-0.2,0-0.8-0.1-1.2,0c0,0-0.1,0-0.1,0.2c0,0.2,0,1.8,0,1.9c0,0,0,0.1,0.1,0.1
			h0.5c0.8,0,0.8,0,1-0.4c0.1-0.1,0.1-0.2,0.1-0.2c0.1,0,0.1,0.1,0.1,0.2c0,0.2,0,0.4,0,0.6c0,0.2,0,0.3,0,0.5c0,0.2,0,0.2-0.1,0.2
			c-0.1,0-0.1-0.1-0.1-0.2c-0.1-0.4-0.2-0.4-0.7-0.4c-0.3,0-0.6,0-0.8,0c0,0-0.1,0.1-0.1,0.1c0,0.2,0,1,0,1.3c0,0.2,0,0.6,0.1,0.7
			c0,0.1,0.1,0.2,0.2,0.2c0.1,0,0.4,0.1,0.8,0.1c0.1,0,0.6,0,0.8-0.1c0.3-0.1,0.5-0.2,0.7-0.6c0.1-0.2,0.1-0.2,0.2-0.2
			c0.1,0,0.1,0.1,0.1,0.2c0,0.1-0.2,0.8-0.3,0.9c0,0-0.1,0.1-0.1,0.1c-0.1,0-1.4-0.1-2.7-0.1c-0.4,0-0.6,0-0.9,0
			c-0.2,0-0.3,0-0.3-0.1c0-0.1,0.1-0.1,0.2-0.1c0.4-0.1,0.6-0.2,0.6-0.6c0-0.4,0.1-1.3,0.1-2.4c0-1,0-1.2,0-1.4
			c0-0.4-0.1-0.5-0.5-0.6c-0.2,0-0.2-0.1-0.2-0.1c0-0.1,0.1-0.1,0.2-0.1c0.4,0,0.7,0,1.3,0H82.3z"/>
		<path class="st1" d="M89.1,46.7c0.5,0.4,0.8,1.2,0.8,1.9c0,1.2-0.8,2.1-1.3,2.4c-0.5,0.3-1.2,0.5-2,0.5c-0.3,0-1.1,0-1.6-0.1
			c-0.2,0-0.3,0-0.4,0c-0.2,0-0.3-0.1-0.3-0.1c0-0.1,0.1-0.1,0.2-0.1c0.6-0.1,0.6-0.2,0.6-0.9c0-0.4,0-0.7,0-1.2c0-0.5,0-1.5,0-2.2
			c0-0.5,0-0.7-0.5-0.7c-0.1,0-0.2-0.1-0.2-0.1c0-0.1,0.1-0.1,0.2-0.1h0.2c0.4,0,1.4-0.1,2.1-0.1C87.9,45.8,88.7,46.3,89.1,46.7z
			 M85.8,46.2c-0.1,0-0.1,0.1-0.1,0.1c0,0.1,0,0.8,0,1.6v1.2c0,0.6,0,1.1,0,1.5c0,0.3,0.2,0.4,0.2,0.4c0.2,0.1,0.5,0.2,0.7,0.2
			c0.4,0,1.1-0.2,1.6-0.5c0.5-0.4,0.9-1.2,0.9-2.1c0-0.7-0.4-1.5-0.9-1.9c-0.4-0.3-1.1-0.5-1.7-0.5C86.1,46.1,85.9,46.1,85.8,46.2z"
			/>
		<path class="st1" d="M91.4,46.7c0-0.4,0-0.5-0.5-0.6c-0.2,0-0.2-0.1-0.2-0.2c0-0.1,0.1-0.1,0.2-0.1c0.2,0,0.6,0,0.9,0
			c0.4,0,0.6,0,0.9,0c0.1,0,0.2,0,0.2,0.1c0,0.1-0.1,0.1-0.2,0.1c-0.5,0.1-0.5,0.3-0.5,0.5c0,0.3-0.1,0.8-0.1,2.5c0,0.5,0,1,0,1.3
			c0,0.5,0.1,0.6,0.6,0.7c0.1,0,0.2,0.1,0.2,0.1c0,0.1-0.1,0.1-0.2,0.1c-0.4,0-1-0.1-1.3-0.1c-0.3,0-0.3,0-0.6,0
			c-0.2,0-0.2-0.1-0.2-0.1c0-0.1,0.1-0.1,0.3-0.1c0.4-0.1,0.5-0.2,0.5-0.6c0-0.3,0-1.2,0-1.9C91.4,48.1,91.4,47,91.4,46.7z"/>
		<path class="st1" d="M97.9,45.9c0.2,0,0.5,0.1,0.6,0.2c0,0,0.1,0.1,0.1,0.3c0,0.2,0,0.5,0.1,0.7c0,0.2-0.1,0.3-0.1,0.3
			c0,0-0.1-0.1-0.1-0.2c-0.1-0.3-0.2-0.5-0.3-0.6c-0.5-0.3-0.9-0.4-1.3-0.4c-1.4,0-2.2,1.1-2.2,2.4c0,0.6,0.1,1,0.3,1.4
			c0.5,1,1.4,1.3,2.1,1.3c0.2,0,0.6,0,0.9-0.2c0.4-0.2,0.6-0.5,0.8-0.8c0.1-0.2,0.1-0.2,0.2-0.2c0.1,0,0.1,0.2,0.1,0.3
			c0,0.2-0.2,0.7-0.3,0.8c0,0.1-0.2,0.2-0.3,0.2c-0.1,0.1-0.8,0.2-1.5,0.2c-1.2,0-2.1-0.6-2.4-1c-0.3-0.4-0.7-1-0.7-1.9
			c0-1,0.6-1.7,0.9-2c0.7-0.6,1.5-0.8,2.3-0.8C97.2,45.8,97.5,45.8,97.9,45.9z"/>
		<path class="st1" d="M100.4,46.7c0-0.4,0-0.5-0.5-0.6c-0.2,0-0.2-0.1-0.2-0.2c0-0.1,0.1-0.1,0.2-0.1c0.2,0,0.6,0,0.9,0
			c0.4,0,0.6,0,0.9,0c0.1,0,0.2,0,0.2,0.1c0,0.1-0.1,0.1-0.2,0.1c-0.5,0.1-0.5,0.3-0.5,0.5c0,0.3-0.1,0.8-0.1,2.5c0,0.5,0,1,0,1.3
			c0,0.5,0.1,0.6,0.6,0.7c0.2,0,0.2,0.1,0.2,0.1c0,0.1-0.1,0.1-0.2,0.1c-0.4,0-1-0.1-1.3-0.1c-0.2,0-0.3,0-0.6,0
			c-0.2,0-0.2-0.1-0.2-0.1c0-0.1,0.1-0.1,0.3-0.1c0.4-0.1,0.5-0.2,0.5-0.6c0-0.3,0-1.2,0-1.9C100.4,48.1,100.4,47,100.4,46.7z"/>
		<path class="st1" d="M102.7,45.9c0.2,0,0.6,0,1,0c0,0,0.1,0.1,0.2,0.1c0.1,0.2,0.3,0.4,0.7,0.8c0.4,0.5,2.2,2.5,2.8,3.1
			c0,0,0.1,0,0.1-0.1c0-0.3,0-1.2,0-2.4c0-0.3,0-0.6,0-0.8c0-0.2-0.1-0.4-0.5-0.5c-0.2,0-0.2-0.1-0.2-0.2c0-0.1,0.1-0.1,0.2-0.1
			c0.2,0,0.5,0,0.7,0c0.3,0,0.6,0,0.8,0c0.1,0,0.2,0,0.2,0.1c0,0.1,0,0.1-0.2,0.2c-0.4,0.1-0.5,0.2-0.5,0.6c0,0.3-0.1,2-0.1,3.4
			c0,0.4,0.1,1,0.1,1.1c0,0.1,0,0.2-0.1,0.2c-0.1,0-0.3-0.2-0.4-0.3c-0.1-0.2-0.3-0.4-0.5-0.7c-0.8-0.9-2.2-2.6-3-3.5
			c0,0-0.1,0-0.1,0c0,0.2,0,0.5,0,1.1c0,0.8,0,2.1,0,2.3c0,0.4,0.1,0.5,0.5,0.6c0.2,0,0.2,0.1,0.2,0.2c0,0.1-0.1,0.1-0.3,0.1
			c-0.2,0-0.6,0-0.9,0c-0.2,0-0.4,0-0.5,0c-0.1,0-0.2,0-0.2-0.1c0-0.1,0.1-0.1,0.2-0.1c0.4-0.1,0.6-0.2,0.6-0.8
			c0-0.7,0.2-2.7,0.2-3.4c0-0.3,0-0.4-0.1-0.4c-0.2-0.3-0.3-0.3-0.7-0.4c-0.1,0-0.2-0.1-0.2-0.1C102.4,45.9,102.5,45.9,102.7,45.9z"
			/>
		<path class="st1" d="M111.9,45.9c0.3,0,0.6,0,0.8,0c0,0,0.1,0.1,0.1,0.1c0,0.4,0,0.6,0,0.8c0,0.1,0,0.2-0.1,0.2
			c-0.1,0-0.1-0.1-0.1-0.2c-0.1-0.4-0.3-0.5-0.6-0.6c-0.2,0-0.8-0.1-1.2,0c0,0-0.1,0-0.1,0.2c0,0.2,0,1.8,0,1.9c0,0,0,0.1,0.1,0.1
			h0.5c0.8,0,0.8,0,1-0.4c0.1-0.1,0.1-0.2,0.2-0.2c0.1,0,0.1,0.1,0.1,0.2c0,0.2,0,0.4,0,0.6c0,0.2,0,0.3,0,0.5c0,0.2,0,0.2-0.1,0.2
			c-0.1,0-0.1-0.1-0.1-0.2c-0.1-0.4-0.1-0.4-0.7-0.4c-0.3,0-0.6,0-0.8,0c0,0-0.1,0.1-0.1,0.1c0,0.2,0,1,0,1.3c0,0.2,0,0.6,0.1,0.7
			c0,0.1,0.1,0.2,0.2,0.2c0.1,0,0.4,0.1,0.8,0.1c0.1,0,0.6,0,0.8-0.1c0.3-0.1,0.5-0.2,0.7-0.6c0.1-0.2,0.1-0.2,0.2-0.2
			c0.1,0,0.1,0.1,0.1,0.2c0,0.1-0.2,0.8-0.3,0.9c0,0-0.1,0.1-0.1,0.1c-0.1,0-1.4-0.1-2.7-0.1c-0.4,0-0.6,0-0.9,0
			c-0.2,0-0.2,0-0.2-0.1c0-0.1,0.1-0.1,0.2-0.1c0.4-0.1,0.6-0.2,0.6-0.6c0-0.4,0.1-1.3,0.1-2.4c0-1,0-1.2,0-1.4
			c0-0.4-0.1-0.5-0.5-0.6c-0.2,0-0.2-0.1-0.2-0.1c0-0.1,0.1-0.1,0.2-0.1c0.4,0,0.7,0,1.3,0H111.9z"/>
	</g>
</g>
</svg>
