<?xml version="1.0" encoding="UTF-8"?>
<!DOCTYPE svg PUBLIC "-//W3C//DTD SVG 1.0//EN" "http://www.w3.org/TR/2001/REC-SVG-20010904/DTD/svg10.dtd">
<!-- Creator: CorelDRAW X8 -->
<svg xmlns="http://www.w3.org/2000/svg" xml:space="preserve" width="50px" height="50px" version="1.0" style="shape-rendering:geometricPrecision; text-rendering:geometricPrecision; image-rendering:optimizeQuality; fill-rule:evenodd; clip-rule:evenodd"
viewBox="0 0 5000 5000"
 xmlns:xlink="http://www.w3.org/1999/xlink">
 <defs>
  <style type="text/css">
   <![CDATA[
    .fil0 {fill:#FEFEFE}
   ]]>
  </style>
 </defs>
 <g id="Слой_x0020_1">
  <metadata id="CorelCorpID_0Corel-Layer"/>
  <path class="fil0" d="M2909 3712c-11,16 -16,35 -16,54l0 681 -704 306 0 -889 353 0c54,0 98,-44 98,-98 0,-54 -44,-97 -98,-97l-398 0 -983 -1462 1973 0c54,0 97,-44 97,-98 0,-54 -43,-97 -97,-97l-2104 0 -184 -274 3390 0 -1327 1974zm-2909 -3712l666 0c-54,0 -98,44 -98,98l0 636c0,54 44,98 98,98 54,0 98,-44 98,-98l0 -636c0,-54 -44,-98 -98,-98l2208 0c-237,0 -429,193 -429,430 0,237 192,429 429,429 237,0 430,-192 430,-429 0,-237 -193,-430 -430,-430l2126 0 0 5000 -2908 0c13,0 26,-3 39,-8l898 -391c36,-16 59,-51 59,-90l0 -715 1310 -1949c41,-60 45,-137 11,-201 -34,-63 -100,-103 -173,-103l-554 0c-47,-261 -275,-459 -548,-459 -274,0 -502,198 -548,459l-562 0c44,-67 70,-148 70,-234 0,-237 -193,-430 -430,-430 -237,0 -430,193 -430,430 0,86 26,167 70,234l-458 0c-73,0 -139,40 -173,103 -34,64 -30,141 11,201l1310 1949 0 1106c0,33 17,64 44,82 16,10 34,16 53,16l-2091 0 0 -5000zm3499 2040c-18,19 -29,44 -29,69 0,26 11,51 29,69 18,19 43,29 69,29 26,0 51,-10 69,-29 18,-18 29,-43 29,-69 0,-25 -11,-50 -29,-69 -18,-18 -43,-28 -69,-28 -26,0 -51,10 -69,28zm-2764 -871c18,-18 29,-43 29,-69 0,-25 -11,-51 -29,-69 -18,-18 -43,-28 -69,-28 -26,0 -51,10 -69,28 -18,18 -29,44 -29,69 0,26 11,51 29,69 18,19 43,29 69,29 26,0 51,-10 69,-29zm1261 -449c54,0 98,-43 98,-97l0 -401c0,-54 -44,-97 -98,-97 -54,0 -98,43 -98,97l0 401c0,54 44,97 98,97zm1922 -373c26,0 51,-11 69,-29 18,-18 29,-43 29,-69 0,-26 -11,-51 -29,-69 -18,-18 -43,-29 -69,-29 -26,0 -51,11 -69,29 -18,18 -29,43 -29,69 0,26 11,51 29,69 18,18 43,29 69,29zm0 875c54,0 98,-43 98,-97l0 -555c0,-54 -44,-98 -98,-98 -54,0 -98,44 -98,98l0 555c0,54 44,97 98,97zm-1044 -1027c129,0 235,105 235,235 0,129 -106,234 -235,234 -129,0 -234,-105 -234,-234 0,-130 105,-235 234,-235zm-1445 1114c0,-130 106,-235 235,-235 129,0 234,105 234,235 0,129 -105,234 -234,234 -129,0 -235,-105 -235,-234zm1705 -30c165,0 305,112 347,264l-695 0c43,-152 182,-264 348,-264z"/>
 </g>
</svg>
