<?xml version="1.0" encoding="UTF-8"?>
<!DOCTYPE svg PUBLIC "-//W3C//DTD SVG 1.0//EN" "http://www.w3.org/TR/2001/REC-SVG-20010904/DTD/svg10.dtd">
<!-- Creator: CorelDRAW X8 -->
<svg xmlns="http://www.w3.org/2000/svg" xml:space="preserve" width="50px" height="50px" version="1.0" style="shape-rendering:geometricPrecision; text-rendering:geometricPrecision; image-rendering:optimizeQuality; fill-rule:evenodd; clip-rule:evenodd"
viewBox="0 0 5000 5000"
 xmlns:xlink="http://www.w3.org/1999/xlink">
 <defs>
  <style type="text/css">
   <![CDATA[
    .fil0 {fill:#FEFEFE}
   ]]>
  </style>
 </defs>
 <g id="Слой_x0020_1">
  <metadata id="CorelCorpID_0Corel-Layer"/>
  <path class="fil0" d="M0 0l2507 0 -59 119c-14,28 -40,47 -70,51l-143 20 103 101c22,21 32,52 27,82l-24 142 127 -67c27,-14 60,-14 87,0l127 67 -24 -142c-5,-30 5,-61 27,-82l103 -100 -143 -21c-30,-4 -56,-23 -70,-51l-59 -119 2484 0 0 5000 -2340 0 -128 -67c-27,-14 -59,-14 -86,0l-128 67 -2318 0 0 -5000zm2660 5000l-342 0 25 -142c5,-30 -5,-61 -27,-82l-103 -101 142 -20c30,-5 57,-24 70,-51l64 -129 64 129c13,27 39,46 70,51l142 20 -103 101c-22,21 -32,52 -27,82l25 142zm1113 -1598c-339,196 -744,230 -1108,100 124,-104 232,-230 317,-368 23,-39 11,-89 -28,-113 -39,-24 -89,-11 -113,28 -88,143 -205,272 -340,373 -335,-250 -533,-642 -533,-1062 0,-419 198,-811 533,-1061 334,250 533,642 533,1061 0,153 -26,302 -76,444 -16,43 7,90 50,105 42,15 90,-7 105,-50 40,-113 66,-230 78,-350 16,-10 33,-20 49,-29 363,-210 802,-235 1186,-70 -49,415 -290,783 -653,992zm-2546 0c-363,-209 -604,-577 -653,-992 384,-165 823,-140 1186,70 17,10 34,20 51,31 39,386 228,741 525,991 -364,131 -770,96 -1109,-100zm162 -1805c188,22 370,85 532,183 -71,167 -111,349 -117,536 -165,-89 -342,-145 -523,-167 -4,-189 33,-378 108,-552zm2222 0c75,174 112,363 108,552 -180,22 -357,77 -521,166 -6,-187 -47,-368 -118,-536 162,-98 343,-160 531,-182zm938 689c-211,-102 -438,-151 -665,-148 2,-229 -48,-458 -148,-665 -15,-30 -46,-49 -80,-46 -229,17 -452,87 -649,204 -111,-198 -267,-370 -460,-501 -28,-19 -65,-19 -93,0 -193,131 -349,304 -460,501 -197,-117 -420,-187 -650,-204 -34,-3 -65,16 -80,46 -100,207 -150,436 -148,665 -227,-3 -454,46 -665,148 -31,14 -49,46 -46,80 36,492 313,933 740,1179 230,133 486,200 744,200 208,0 416,-44 611,-132 195,88 403,132 611,132 258,0 514,-67 744,-200 427,-246 704,-687 740,-1179 3,-34 -15,-66 -46,-80zm-606 -1434c30,-5 57,-24 70,-51l64 -129 64 129c13,27 39,46 70,51l142 20 -103 101c-22,21 -32,52 -27,82l24 142 -127 -67c-27,-14 -59,-14 -87,0l-127 67 24 -142c5,-30 -5,-61 -26,-82l-104 -101 143 -20zm-3036 2958l64 129c13,27 39,46 69,51l143 20 -103 101c-22,21 -32,52 -27,82l24 142 -127 -66c-27,-15 -59,-15 -87,0l-127 67 24 -142c5,-31 -5,-61 -26,-83l-104 -100 143 -21c30,-4 56,-23 70,-51l64 -129zm3020 179c30,-5 57,-24 70,-51l64 -129 64 129c13,27 39,46 70,51l142 21 -103 100c-22,22 -32,53 -27,83l25 142 -128 -67c-27,-15 -59,-15 -86,0l-128 67 24 -142c6,-30 -4,-61 -26,-82l-103 -101 142 -21zm-3138 -3170c30,-5 56,-24 70,-51l64 -129 63 129c14,27 40,46 70,51l143 20 -103 101c-22,21 -32,52 -27,82l25 142 -128 -67c-27,-14 -59,-14 -86,0l-128 67 25 -142c5,-30 -5,-61 -27,-82l-104 -101 143 -20z"/>
 </g>
</svg>
