<?xml version="1.0" encoding="UTF-8"?>
<!DOCTYPE svg PUBLIC "-//W3C//DTD SVG 1.0//EN" "http://www.w3.org/TR/2001/REC-SVG-20010904/DTD/svg10.dtd">
<!-- Creator: CorelDRAW X8 -->
<svg xmlns="http://www.w3.org/2000/svg" xml:space="preserve" width="50px" height="50px" version="1.0" style="shape-rendering:geometricPrecision; text-rendering:geometricPrecision; image-rendering:optimizeQuality; fill-rule:evenodd; clip-rule:evenodd"
viewBox="0 0 5000 5000"
 xmlns:xlink="http://www.w3.org/1999/xlink">
 <defs>
  <style type="text/css">
   <![CDATA[
    .fil0 {fill:#FEFEFE}
   ]]>
  </style>
 </defs>
 <g id="Слой_x0020_1">
  <metadata id="CorelCorpID_0Corel-Layer"/>
  <path class="fil0" d="M3799 3890c0,129 -104,233 -233,233 -128,0 -232,-104 -232,-233 0,-128 104,-232 232,-232 129,0 233,104 233,232zm-3799 -3890l1960 0c-318,0 -576,259 -576,576l0 727c-68,38 -113,110 -113,190l0 111c0,120 97,218 217,218l46 0c19,135 95,334 237,514 16,21 34,42 53,63 -254,80 -439,308 -462,578l-597 180c-135,40 -234,153 -258,292l-90 526c-7,40 20,78 60,84 40,7 78,-20 85,-59l89 -526c15,-85 75,-153 157,-177l552 -167 0 145c-127,23 -235,110 -279,231 -12,32 -19,65 -22,99l-53 685c-4,51 14,102 49,140 35,38 85,60 137,60l91 0c40,0 73,-33 73,-73 0,-41 -33,-73 -73,-73l-91 0c-11,0 -22,-5 -30,-13 -7,-8 -11,-19 -10,-30l53 -685c2,-20 6,-40 14,-60 30,-84 114,-140 207,-141l12 0c0,0 1,0 1,0 91,0 171,51 205,131 9,23 15,46 17,70l53 685c1,11 -3,22 -10,30 -7,8 -18,13 -29,13l-91 0c-41,0 -74,33 -74,73 0,40 33,73 74,73l91 0c52,0 101,-22 136,-60 36,-38 53,-89 49,-140l-53 -685c-3,-40 -13,-79 -28,-116 -48,-114 -152,-193 -273,-214l0 -189 252 -76c23,48 68,153 158,377 90,227 203,518 311,800 1,2 2,5 3,7 72,189 142,373 201,533 11,28 38,47 69,47 31,0 58,-19 69,-47 59,-160 129,-344 201,-533 1,-2 2,-5 3,-7 108,-282 220,-573 311,-799 90,-225 135,-330 158,-378l252 76 0 433c-174,33 -306,187 -306,371 0,209 170,379 378,379 209,0 379,-170 379,-379 0,-183 -131,-337 -305,-371l0 -389 552 167c82,24 142,92 157,177l221 1295c3,21 -2,42 -16,59 -14,16 -34,26 -56,26l-3996 0c-22,0 -42,-10 -56,-26 -14,-17 -19,-38 -16,-59l73 -428c7,-40 -20,-77 -60,-84 -39,-7 -77,20 -84,60l-73 427c-11,64 7,129 48,178 42,50 103,78 168,78l-502 0 0 -5000zm3040 0l1960 0 0 5000 -502 0c65,0 126,-28 168,-78 41,-49 59,-114 48,-178l-221 -1295c-24,-139 -123,-252 -258,-292l-597 -180c-12,-146 -72,-284 -172,-393 -79,-87 -179,-150 -290,-185 19,-21 37,-42 53,-63 142,-180 218,-379 237,-514l46 0c120,0 217,-98 217,-218l0 -111c0,-80 -45,-152 -113,-190l0 -267c0,-41 -32,-74 -73,-74 -40,0 -73,33 -73,74l0 300c-28,5 -62,14 -97,28 -4,2 -7,3 -11,5 -7,3 -15,7 -23,11l0 -590c0,-163 -133,-295 -296,-295l-202 0c-70,0 -138,24 -192,68l-20 16c-36,30 -82,47 -129,47 -47,0 -93,-17 -129,-47l-20 -16c-54,-44 -122,-68 -192,-68l-202 0c-163,0 -296,132 -296,295l0 590c-8,-4 -16,-8 -23,-11 -4,-2 -7,-3 -11,-5 -34,-14 -69,-23 -97,-28l0 -760c0,-237 193,-430 430,-430l1080 0c237,0 430,193 430,430l0 116c0,40 33,73 73,73 41,0 73,-33 73,-73l0 -116c0,-317 -258,-576 -576,-576zm191 2854c0,0 0,0 0,0 0,0 -1,0 -1,0 -42,-13 -87,-11 -128,4 -30,-32 -50,-79 -50,-125l0 -213c219,32 390,198 432,410l-253 -76zm-178 224c-4,8 -8,17 -12,27 0,1 -1,2 -1,3 -4,9 -8,19 -12,28 0,1 0,2 -1,2 -3,9 -7,17 -10,26 -1,2 -2,3 -2,5 -1,2 -2,4 -3,6 -1,4 -3,8 -5,12 -2,4 -4,9 -6,14 0,2 -1,4 -2,5 -5,13 -10,26 -15,39 -1,2 -2,4 -3,6 -2,7 -5,13 -8,20 -1,3 -2,5 -3,8 -3,7 -6,14 -9,21 0,2 -1,4 -2,6 -10,25 -20,50 -31,77 0,1 -1,2 -1,3 -3,9 -7,18 -10,26 -1,2 -2,4 -2,5 -4,10 -8,19 -11,28 -1,1 -1,1 -1,1 -4,10 -8,20 -12,31l-72 -31c0,0 0,0 -1,0l-172 -73 412 -309c-2,5 -3,9 -5,14zm-281 704c-15,37 -29,75 -44,113l-29 -164 111 -130 28 12c-21,53 -43,110 -66,169zm-185 -145l-174 0 -82 -96 169 -71 169 71 -82 96zm-86 853c-2,-5 -4,-9 -7,-13 -33,-87 -75,-198 -122,-320l69 -374 118 0 69 374c-49,128 -93,243 -127,333zm-229 -595c-15,-38 -29,-76 -44,-113 -23,-59 -45,-116 -66,-169l28 -12 111 130 -29 164zm-175 -449c0,0 0,0 -1,-1 -3,-9 -7,-18 -11,-28 0,-1 -1,-3 -2,-5 -3,-9 -7,-17 -10,-26 0,-1 -1,-1 -1,-2 -11,-27 -21,-53 -31,-79 -1,-1 -2,-3 -2,-5 -3,-7 -6,-14 -9,-21 -1,-3 -2,-5 -3,-8 -3,-7 -5,-13 -8,-20 -1,-2 -2,-4 -3,-6 -4,-12 -9,-23 -14,-35 -1,-3 -2,-6 -4,-9 -1,-5 -3,-9 -5,-13 -2,-5 -4,-10 -6,-14 0,-2 -1,-4 -2,-5 0,-2 -1,-3 -1,-4 -9,-21 -17,-40 -24,-58 -1,-1 -1,-1 -1,-1 -4,-10 -8,-19 -12,-28 -2,-5 -3,-9 -5,-14l412 308 -172 74c-1,0 -1,0 -1,0l-72 31c-4,-11 -8,-21 -12,-31zm-199 -588c-39,-14 -82,-17 -123,-6 -2,1 -4,1 -6,2l-253 76c43,-210 214,-378 432,-410l0 213c0,46 -20,93 -50,125zm1082 82l-480 359 -480 -359c48,-60 75,-138 75,-207l0 -118c112,60 247,101 405,101 158,0 293,-41 405,-101l0 118c0,69 27,147 75,207zm-1304 -1183l0 -192c22,6 46,6 68,-4 39,-16 64,-53 64,-95l0 -676c0,-82 67,-149 149,-149l202 0c36,0 71,13 99,36l20 16c62,51 141,79 222,79 81,0 160,-28 222,-79l20 -16c28,-23 63,-36 99,-36l202 0c82,0 149,67 149,149l0 676c0,42 25,79 64,95 12,6 26,8 39,8 10,0 20,-1 29,-4l0 192c0,107 -73,315 -210,489 -46,58 -104,120 -176,174 -2,1 -4,3 -6,5 -112,82 -255,145 -432,145 -177,0 -320,-63 -432,-145 -2,-2 -4,-4 -6,-5 -72,-54 -130,-116 -176,-174 -137,-174 -210,-382 -210,-489zm-147 -82l-41 0c-39,0 -71,-32 -71,-71l0 -111c0,-9 2,-18 6,-26 11,6 23,9 35,9 1,0 32,0 71,9l0 190zm1942 -190c39,-9 70,-9 71,-9 12,0 24,-3 35,-9 4,8 6,17 6,26l0 111c0,39 -32,71 -71,71l-41 0 0 -190z"/>
 </g>
</svg>
