<?xml version="1.0" encoding="UTF-8"?>
<!DOCTYPE svg PUBLIC "-//W3C//DTD SVG 1.0//EN" "http://www.w3.org/TR/2001/REC-SVG-20010904/DTD/svg10.dtd">
<!-- Creator: CorelDRAW X8 -->
<svg xmlns="http://www.w3.org/2000/svg" xml:space="preserve" width="50px" height="50px" version="1.0" style="shape-rendering:geometricPrecision; text-rendering:geometricPrecision; image-rendering:optimizeQuality; fill-rule:evenodd; clip-rule:evenodd"
viewBox="0 0 5000 5000"
 xmlns:xlink="http://www.w3.org/1999/xlink">
 <defs>
  <style type="text/css">
   <![CDATA[
    .fil0 {fill:#FEFEFE}
   ]]>
  </style>
 </defs>
 <g id="Слой_x0020_1">
  <metadata id="CorelCorpID_0Corel-Layer"/>
  <path class="fil0" d="M1966 3037l533 289 -93 158c-10,17 -13,37 -8,56 5,20 18,36 35,46l7 4c146,84 212,252 169,408l-903 -521 260 -440zm-1966 -3037l5000 0 0 5000 -754 0c171,0 341,-60 476,-176l91 -78c32,-28 35,-76 7,-107 -28,-30 -75,-30 -106,-4l-89 77c-187,160 -455,185 -668,62l-1216 -700c75,-209 6,-442 -171,-576l413 -699 620 305c51,25 106,38 163,38 0,0 0,0 0,0 142,0 269,-79 331,-206 36,-72 46,-152 32,-230l145 71c10,5 22,8 33,8 29,0 57,-17 68,-47 15,-36 -3,-78 -38,-95l-406 -200c-1,0 -1,-1 -2,-1l-428 -210 -49 -24c0,-1 0,-1 0,-1l-104 -50 131 -131c40,-40 70,-88 88,-141 126,67 265,101 410,100 466,-5 844,-389 843,-854 -1,-469 -383,-850 -852,-850 -141,0 -273,34 -390,94 0,-6 1,-12 1,-18 0,-205 -175,-371 -383,-356 -176,12 -318,155 -331,331 -14,208 151,382 356,382 2,0 3,0 5,0 -59,103 -96,220 -107,344l-1329 0c-146,0 -278,48 -383,137 -2,2 -4,3 -5,5l-327 -161 55 -110c17,-34 8,-76 -24,-97 -38,-26 -88,-11 -108,28l-56 114 -218 -107c-36,-18 -82,-6 -101,30 -20,38 -5,83 33,102l219 108 -52 104c-18,36 -7,80 28,100 11,7 24,10 37,10 27,0 53,-15 66,-41l54 -108 292 144c-39,60 -69,127 -86,199 -29,125 -18,257 30,371 54,127 152,229 283,294l109 54c36,18 81,3 99,-33l0 0c18,-37 4,-82 -33,-100l-109 -54c-232,-116 -271,-341 -234,-498 13,-56 38,-114 76,-167l1103 542 -76 76c-84,83 -122,204 -103,321 20,117 95,218 201,270l289 142 -275 465 -532 -289 251 -425c16,-26 14,-60 -6,-85 -7,-8 -16,-15 -26,-20l-254 -126c-36,-18 -81,-3 -99,33l0 0c-19,37 -4,82 33,100l184 91 -548 926 -1305 -752c-35,-21 -81,-8 -101,27 -7,12 -10,25 -10,37 0,26 13,51 37,65l3685 2123c113,65 238,97 363,97l-4246 0 0 -5000zm2506 2296c-12,-70 11,-141 61,-191l0 0 495 -495c43,-43 100,-65 156,-65 56,0 113,22 156,65 41,41 64,97 64,155 0,59 -23,115 -64,156l-204 204c-17,17 -25,41 -21,65 4,23 19,44 41,54l234 116 223 109 -194 396 -827 -407c-64,-31 -109,-92 -120,-162zm-955 -1023c63,-40 143,-66 239,-66l1329 0c5,67 19,132 40,195 -74,11 -145,46 -202,103l-308 308 -1098 -540zm1462 -916c0,-115 93,-208 208,-208 115,0 209,93 209,208 0,115 -94,209 -209,209 -115,0 -208,-94 -208,-209zm1542 388l-149 0c-41,0 -74,34 -74,75l0 0c0,41 33,74 74,74l223 0c19,52 32,107 38,164l-1399 0c6,-57 19,-112 38,-164l754 0c41,0 74,-33 74,-74l0 0c0,-41 -33,-75 -74,-75l-679 0c126,-190 342,-316 587,-316 245,0 461,126 587,316zm-587 1091c-138,0 -270,-39 -384,-113 -9,-83 -46,-159 -105,-218 -46,-46 -100,-77 -158,-94 -28,-65 -46,-133 -53,-204l1048 0 -5 119c-2,41 29,76 70,78 1,0 3,0 4,0 39,0 72,-31 74,-71l6 -126 202 0c-37,353 -337,629 -699,629zm7 866c19,56 15,115 -11,168 -38,76 -113,123 -198,123 -34,0 -67,-7 -97,-22l-83 -41 195 -395 84 41c52,26 91,71 110,126z"/>
 </g>
</svg>
